<svg version="1.1"
	 xmlns="http://www.w3.org/2000/svg" xmlns:xlink="http://www.w3.org/1999/xlink" xmlns:a="http://ns.adobe.com/AdobeSVGViewerExtensions/3.0/"
	 x="0px" y="0px" width="104.95px" height="63.28px" viewBox="0 0 104.95 63.28" style="enable-background:new 0 0 104.95 63.28;"
	 xml:space="preserve">

	<g>
		<path style="fill:#404040;" d="M34.03,13.66c-5.51,0.31-11.43,3.61-14.17,8.5c-3.71,6.62-2.61,13.82-7.22,21.5
			c-2.35,3.91-6.67,7.55-10.32,7.86c-3.66,0.31-2.44,2.1-0.11,3.46c1.82,1.05,4.25,0.66,6.15,1.43c2.19,0.89,1.69,3.37,3.1,4.85
			c1.39,1.47,3.87,1.59,5.76,1.78c4.58,0.46,9.29-0.14,13.83-0.77c4.2-0.58,7.53-0.61,11.8,0.23c12.5,2.44,21.64-1.22,18.9-4.27
			c-2.74-3.05,0-0.61,4.57-3.66c3.19-2.13-5.84-4.42-6.98-5.51c-3.82-3.66-2.78-9.78-3.57-14.52c-0.91-5.43-3.03-11-6.8-15.08
			C45,15.15,39.46,13.35,34.03,13.66z"/>
		<path style="fill:#FFFFFF;" d="M24.26,28.66c0,0,1.52,1.52,2.44,2.44c0.3-0.3-1.22,2.74,1.52,5.18c0.61,0.61,2.44-3.35,2.44-3.35
			s4.88,1.52,11.58,0c-0.61,0,2.13,3.66,2.13,3.66s2.74,0,2.13-5.49c0.91-0.3,2.74-3.05,2.74-3.05s3.05,14.02-11.58,14.63
			S24.26,28.66,24.26,28.66z"/>
		<path style="fill:#FFFFFF;" d="M37.36,18.84c-2.36-0.01-4.67,1.51-5.17,5.55c-0.58,4.65,5,6.13,8.16,3.74
			C44.68,24.85,41.66,18.86,37.36,18.84z"/>
		<path style="fill:#404040;" d="M37.67,20.89c-1.73-0.17-3.14,0.69-3.66,2.59c-0.91,3.35,1.22,4.27,3.05,4.57
			c1.83,0.3,3.66-0.61,3.96-3.96C41.21,22.05,39.27,21.04,37.67,20.89z"/>
		<g>
			<path style="fill:#404040;" d="M13.65,15.54c0.24,1.84,0.78,3.76,1.83,5.5c0.48-1.83,2.1-5.25,7.5-6.83
				c-1.65-0.7-3.51-1.72-5.34-3.21C16.16,11.83,14.67,13.23,13.65,15.54z"/>
			<path style="fill:#404040;" d="M16.84,10.29c-0.91-0.82-1.79-1.74-2.63-2.82c-0.07,0.13-0.7,2.45-0.71,5.45
				C14.26,11.99,15.33,11.06,16.84,10.29z"/>
			<path style="fill:#404040;" d="M24.41,14.77c-2.32,0.4-6.36,1.95-7.83,7.77c0.62,0.72,1.33,1.4,2.19,1.99
				c0.15-0.3,9.45-8.84,9.45-8.84S26.66,15.56,24.41,14.77z"/>
		</g>
		<g>
			<path style="fill:#404040;" d="M57.23,15.54c-0.24,1.84-0.78,3.76-1.83,5.5c-0.48-1.83-2.1-5.25-7.5-6.83
				c1.65-0.7,3.51-1.72,5.34-3.21C54.71,11.83,56.2,13.23,57.23,15.54z"/>
			<path style="fill:#404040;" d="M54.04,10.29c0.91-0.82,1.79-1.74,2.63-2.82c0.07,0.13,0.7,2.45,0.71,5.45
				C56.62,11.99,55.55,11.06,54.04,10.29z"/>
			<path style="fill:#404040;" d="M46.47,14.77c2.32,0.4,6.36,1.95,7.83,7.77c-0.62,0.72-1.33,1.4-2.19,1.99
				c-0.15-0.3-9.45-8.84-9.45-8.84S44.22,15.56,46.47,14.77z"/>
		</g>
	</g>
	<path style="fill:#404040;" d="M64.21,26.55c1.21,0.09,5.24-1.57,6.51-1.15c-0.51-1.66-1.02-3.32-1.53-4.98
		c2.17-0.13,4.34-0.26,6.5-0.38c-1.49,0.09-1.45-8.96-0.97-10.01c1.14-2.52,4.11-4.57,6.32-6.03c3.1-2.05,7.41-4.53,11.28-3.9
		c5.64,0.91,11.44,10.02,12.45,14.98c1.9,9.33-12.38,16.9-20.28,14.53c-3.83-1.15-4.98-2.68-4.98-2.68l-6.12-3.06l0.38,5.74
		C71.48,27.89,66.42,28.37,64.21,26.55z"/>
	<g>
		<path style="fill:#FFFFFF;" d="M91.9,21.47c-1.07,0.56-2.17,0.8-3.49,0.83c-3.24,0.09-6.04-2.05-6.14-5.59
			c-0.11-3.8,2.63-7.16,7.01-7.28c3.43-0.1,5.81,2.09,5.89,5.17c0.08,2.77-1.54,4.44-3.39,4.49c-0.79,0.02-1.53-0.46-1.5-1.58
			l-0.08,0c-0.66,1.11-1.55,1.67-2.74,1.7c-1.15,0.03-2.16-0.81-2.2-2.26c-0.06-2.29,1.81-4.42,4.56-4.5
			c0.85-0.02,1.6,0.12,2.12,0.33l-0.58,3.36c-0.26,1.41,0,2.05,0.65,2.05c1.01-0.01,2.1-1.29,2.04-3.43
			c-0.08-2.67-1.85-4.54-4.91-4.46c-3.22,0.09-5.85,2.54-5.75,6.29c0.09,3.08,2.29,4.92,5.21,4.84c1.13-0.03,2.16-0.28,2.96-0.73
			L91.9,21.47z M90.59,13.53c-0.2-0.05-0.54-0.11-0.99-0.1c-1.74,0.05-3.1,1.62-3.05,3.41c0.02,0.81,0.47,1.39,1.34,1.37
			c1.15-0.03,2.15-1.43,2.34-2.58L90.59,13.53z"/>
	</g>

</svg>
