<?xml version="1.0" encoding="utf-8"?>
<!-- Generator: Adobe Illustrator 18.1.0, SVG Export Plug-In . SVG Version: 6.00 Build 0)  -->
<svg version="1.1" id="Layer_1" xmlns="http://www.w3.org/2000/svg" xmlns:xlink="http://www.w3.org/1999/xlink" x="0px" y="0px"
	 viewBox="-367 221 224.9 119" enable-background="new -367 221 224.9 119" xml:space="preserve">
<g>
	<path fill="#333333" d="M-143,306.8c-2.1-4.4-6.3-6.7-11-8.6c6-3.9,11.5-8.8,9.9-17.3c-0.9-4.6-10.1-13.7-15.4-11.7
		c8.9-3.3,4.8-16.1-0.2-19.1c-7.3-4.4-12.7-4.3-20.9-5c-14.9-1.2-27.1-1-47.6,2c-9.4,1.4-17.2,2.3-26.7,2.8c-0.5,0-3.2-0.1-6.4-0.3
		c-5.3-0.3-13.1-1-14-1.5c0,0-0.1-0.1-0.1-0.1c-0.1,0.2-0.2,0.5-0.3,0.8c-0.7,1.1-2.4,3-4.9,4.3c-3.9,2.1-5.2,2.7-11.7,3.8
		c-13.9,2.2-32.2,3.4-45.6-1.4c-3-1.1-5.8-2.6-8.3-6.8c0.1,0.3-4.9,5.2-5.3,5.7c-2,2.4-3.8,4.9-5.4,7.5c-3.2,5.3-5.8,10.9-7.4,16.9
		c-4.6,16.9-4.3,37.4,10.8,49c14.9,11.4,37.8,12.6,55.6,12.2c4-0.1,7.6-0.3,10.9-0.6c27.9,0.7,55.8,1,83.7,0.5
		c13.1-0.2,26.8-0.1,39.8-2.1c12.2-1.8,16.6-7.6,9.1-16.5C-147.3,321.3-139.5,314-143,306.8z M-306.5,258.6c0,0,0,0.1,0,0.1
		c0,0,0,0,0,0C-306.6,258.6-306.5,258.6-306.5,258.6z M-318.8,332.1c-58.5-1.9-33.3-52.7-33.3-52.7c12.4,0.3,21.4-1.3,28-3.8
		l0.1-8.2l2.9,1.4l-0.1,6.9c1.9,3,6.2,5.6,15.5,5.4c3-0.1,5.5-0.4,7.4-1l1.7-13l-0.1,12.5c1.7-0.7,2.9-1.5,3.8-2.5l1.5-13.9
		l1.7,12.5c2,0.6,4,1,5.9,1.4l0.1-9.3l4.6-0.5l1.7,10.7c3.7,0.4,6.2,0.4,6.2,0.4C-263.8,301.6-257.3,334.2-318.8,332.1z"/>
	<path fill="#FFFFFF" d="M-247.3,258.6c0.8,0,1.6,0.3,2.5,0.9s1,5.4,0.6,14.4c0,0.1,0.4,0.2,1.1,0.2c4.8-0.3,7.3-0.4,7.7-0.2
		s0.7,0.7,0.9,1.5c0.2,0.8,0.2,1.8,0.1,3.1c-0.2,1.3-0.5,2-1,2.3s-3,0.4-7.7,0.4c-4.7,0-7.2-0.1-7.4-0.3c-0.3-0.2-0.5-0.4-0.6-0.7
		s-0.1-1.7,0-4.2l0-7.5c0-4.1,0-6.4-0.1-6.9c-0.1-0.5,0-0.9,0.3-1.2s0.8-0.6,1.5-1C-248.9,258.8-248.1,258.6-247.3,258.6z
		 M-220,259.2c0.4,0,0.9,3.3,1.4,9.8s0.5,10.2,0.1,10.9c-0.4,0.7-1.5,1.1-3.4,1.1s-3-0.3-3.4-0.9c-0.4-0.6-0.6-4.1-0.5-10.4
		c0.1-6.3,0.3-9.6,0.6-10C-224.7,259.4-223.1,259.2-220,259.2z M-200.9,259.5c1.3-0.1,2.7,0,4.2,0.4c1.4,0.4,2.6,0.8,3.5,1.3
		s1,1.2,0.6,2.1c-0.5,1-1.2,1.7-2.1,2.2c-0.9,0.5-2.2,0.4-3.8-0.1c-1.6-0.5-2.7-0.8-3.3-0.7s-0.9,0.3-1.1,0.6
		c-0.2,0.3,0.1,0.6,1,0.9c0.8,0.3,2,0.5,3.6,0.8s2.9,1.1,3.8,2.3c0.9,1.3,1.4,2.5,1.5,3.6c0.1,1.1-0.4,2.6-1.4,4.3s-3,2.9-6.1,3.5
		c-3.1,0.6-5.4,0.6-7.1-0.2c-1.6-0.7-2.8-1.8-3.6-3.3s-0.7-2.5,0.1-3.1s1.7-1,2.5-1.1s1.7,0,2.5,0.4s1.7,0.7,2.7,1
		c1,0.3,1.8-0.1,2.3-1c0.6-0.9-0.3-1.4-2.5-1.4c-2.3,0-3.9-0.4-4.9-1.1c-1-0.7-1.6-1.6-1.7-2.8s0-2.3,0.4-3.2c0.4-1,0.8-1.8,1.4-2.3
		c0.6-0.6,1.7-1.2,3.2-1.9S-202.3,259.6-200.9,259.5z M-177.9,258.7c0.7,0,1.9,0.3,3.6,0.8s3.2,3.9,4.6,10.1
		c1.4,6.2,1.6,9.6,0.6,10.1c-1,0.6-2.1,0.9-3.4,0.9c-1.3,0-2-0.2-2.3-0.5c-1.2-1.2-1.9-2.4-2.2-3.4c-0.3-1-0.4-1.5-0.5-1.5
		c-0.1,0-0.1,0-0.3,0h-0.4c0.1,0.7,0,1.7-0.1,3c-0.1,1.4-1,2.2-2.7,2.5c-1.6,0.3-2.8,0.3-3.4,0.1s-1.1-0.8-1.4-1.6
		c-0.3-0.8-0.5-1.5-0.5-2l0.2-3.7c0.9-6.5,1.5-10.1,1.8-10.9c0.3-0.7,0.5-1.2,0.7-1.5s0.5-0.6,1-1.1c0.5-0.4,1.2-0.7,2.2-0.9
		C-179.4,258.8-178.6,258.7-177.9,258.7z M-179.5,266.9l-0.1,2l3.6,0l-0.3-2c0-0.6-0.2-1-0.6-1.1c-0.3-0.1-0.6-0.2-1.1-0.2
		c-0.6,0-1.1,0.3-1.4,0.8C-179.5,266.6-179.5,266.7-179.5,266.9z M-245.3,289c1.1,0,2.3,0.4,3.6,1.1c1.2,0.7,1.5,6.4,0.9,16.9
		c0,0.1,0.5,0.2,1.6,0.2c6.9-0.4,10.6-0.5,11.1-0.3s1,0.8,1.3,1.7s0.4,2.1,0.1,3.6s-0.8,2.4-1.4,2.6s-4.4,0.4-11.1,0.4
		c-6.8,0-10.4-0.1-10.7-0.4c-0.4-0.2-0.7-0.5-0.9-0.9c-0.2-0.3-0.2-2,0-4.9l0-8.8c0-4.8-0.1-7.5-0.2-8.1s0-1.1,0.4-1.4
		c0.4-0.3,1.1-0.7,2.1-1.2C-247.5,289.2-246.4,289-245.3,289z M-208,289.6c0.6,0,1.3,3.9,2,11.6c0.7,7.7,0.8,12,0.2,12.8
		c-0.6,0.9-2.2,1.3-4.8,1.3c-2.7,0-4.3-0.4-4.8-1.1c-0.6-0.7-0.8-4.8-0.7-12.2c0.1-7.4,0.4-11.3,0.9-11.7
		C-214.8,289.9-212.3,289.7-208,289.6z M-174.7,289.8c2,0.2,3.3,0.6,3.9,1.2c0.6,0.6,1,1.2,1,2l0,11.2c-0.1,1.2,0,2.8,0.3,4.8
		s0.6,3.3,1,3.8c0.1,0.3,0.1,0.5,0.1,0.7c-0.1,0.6-0.4,1.1-1.1,1.3c-0.7,0.3-1.6,0.3-2.6,0.2c-1.1-0.1-2-0.4-2.6-0.9
		s-1.1-0.8-1.2-1.1c-0.1-0.2-0.2-0.3-0.2-0.3c-1.3,0.8-2.8,1.5-4.5,2.1c-1.9,0.4-4.1,0.4-6.7,0c-2.6-0.4-4.8-1.8-6.5-4.3
		s-2.2-8.1-1.4-16.9c0.2-2.3,0.6-3.5,1.2-3.7s1.3-0.4,2-0.5c0.7-0.1,1.7-0.1,2.9,0c1.3,0.1,2.2,0.3,2.7,0.6s0.8,2.9,0.6,7.6
		s0.6,7.1,2.3,7.2c1.7,0.1,2.6-0.7,2.8-2.4c0.2-1.7,0.5-3.2,0.8-4.4s0.6-3.5,0.9-6.7c0.1-0.5,0.4-1,0.8-1.3
		S-176.7,289.6-174.7,289.8z"/>
	<path fill="#FFFFFF" d="M-179,330.3c-1.1,0-2.1-0.4-2.7-1.2c-0.6-0.8-1-1.8-1-3.1c0-1.3,0.3-2.3,1-3.1c0.7-0.8,1.6-1.1,2.7-1.1
		c1.1,0,2.1,0.4,2.7,1.1c0.6,0.8,1,1.8,1,3.1c0,1.3-0.3,2.3-1,3.1C-176.9,329.9-177.9,330.3-179,330.3z M-179,322.8
		c-0.9,0-1.5,0.3-2,0.8c-0.5,0.6-0.7,1.4-0.7,2.4c0,1.1,0.2,1.9,0.7,2.5c0.5,0.6,1.1,0.8,2,0.8c0.9,0,1.5-0.3,2-0.8
		c0.5-0.6,0.7-1.4,0.7-2.5c0-1.1-0.2-1.9-0.7-2.5C-177.5,323.1-178.1,322.8-179,322.8z M-221.7,330.3c-1,0-1.7-0.1-2.3-0.3l-0.1-0.1
		v-1l0.3,0.1c0.5,0.2,1.2,0.3,2.1,0.3c0.6,0,1.1-0.1,1.4-0.4c0.3-0.2,0.5-0.6,0.5-1c0-0.3-0.1-0.5-0.2-0.6c-0.1-0.2-0.3-0.3-0.5-0.5
		c-0.3-0.2-0.7-0.3-1.2-0.5c-0.8-0.3-1.4-0.6-1.7-0.9c-0.3-0.4-0.5-0.8-0.5-1.4c0-0.6,0.3-1.2,0.8-1.6c0.5-0.4,1.1-0.6,1.9-0.6
		c0.8,0,1.5,0.1,2.1,0.4l0.2,0.1l-0.4,0.8l-0.2-0.1c-0.6-0.3-1.2-0.4-1.8-0.4c-0.5,0-0.9,0.1-1.3,0.4c-0.3,0.2-0.4,0.5-0.4,0.9
		c0,0.3,0,0.5,0.1,0.6c0.1,0.1,0.2,0.3,0.4,0.4c0.2,0.2,0.7,0.3,1.2,0.5c0.6,0.2,1.1,0.4,1.4,0.6c0.3,0.2,0.6,0.5,0.7,0.7
		c0.1,0.2,0.3,0.5,0.3,1c0,0.7-0.3,1.3-0.8,1.7C-220.2,330.1-220.9,330.3-221.7,330.3z M-229.8,330.3c-1,0-1.7-0.3-2.3-0.8
		c-0.5-0.6-0.8-1.3-0.8-2.3V322h1v5.3c0,0.7,0.2,1.2,0.6,1.6c0.4,0.4,0.9,0.6,1.6,0.6c0.7,0,1.2-0.2,1.6-0.6
		c0.4-0.4,0.6-0.9,0.6-1.6V322h0.9v5.2c0,1-0.3,1.7-0.8,2.2C-228.1,330-228.8,330.3-229.8,330.3z M-172.6,330.2V322h0.8l4.3,6.5
		c0-0.4,0-0.8,0-1.2V322h0.9v8.2h-0.8l-4.3-6.5c0,0.5,0,0.9,0,1.2v5.3H-172.6z M-186.4,330.2V322h0.9v8.2H-186.4z M-192,330.2v-7.3
		h-2.5V322h6v0.9h-2.5v7.3H-192z M-196.4,330.2l-1.1-2.8h-2.9l-1.1,2.8h-1l3.3-8.2h0.6l3.2,8.2H-196.4z M-197.9,326.5l-1-2.5
		c0-0.1-0.1-0.2-0.1-0.3c0,0.1-0.1,0.2-0.1,0.4l-1,2.5H-197.9z M-209.2,330.2V322h2.1c1,0,1.8,0.2,2.3,0.6c0.5,0.4,0.8,1,0.8,1.8
		c0,0.6-0.2,1-0.5,1.4c-0.3,0.3-0.6,0.6-1.1,0.8l2.2,3.6h-1.1l-2-3.4h-1.6v3.4H-209.2z M-207,325.9c0.6,0,1.1-0.1,1.4-0.4
		c0.3-0.2,0.5-0.6,0.5-1.1c0-0.5-0.2-0.9-0.5-1.1c-0.3-0.2-0.9-0.4-1.6-0.4h-1.1v3H-207z M-214.8,330.2v-7.3h-2.5V322h6v0.9h-2.5
		v7.3H-214.8z M-239.8,330.2V322h0.9v7.3h3.7v0.9H-239.8z M-246.7,330.2V322h0.9v7.3h3.7v0.9H-246.7z M-250.8,330.2V322h0.9v8.2
		H-250.8z"/>
	<path fill="#333333" d="M-285.7,241.4c-2.3-6.8-11.4-1.1-15.3-5.9c-3.2-3.9-7.4-5-12.3-5.1c-3.4,0-7,0.6-9.8,2.6
		c-1.8,1.3-3.5,3-4.1,5.2c0.3-1-6.8-2.3-11.5,1.6c-2.3,1.9-4.4,4.9-3.5,7.8c0.2,0.6,0.4,1.1,0.8,1.6c2.5,3.4,8.4,4.2,12.3,4.9
		c4.6,0.8,9.3,1.3,14,1.4c25.9,0.6,37.4-4.5,35.9-10.6C-280,241.4-285.4,242.3-285.7,241.4z M-284,247.3c-0.7,1.4-3.7,2.1-5,2.6
		c-8.1,2.7-16.8,3-25.3,2.7c-5.4-0.2-11.8-0.8-16.9-2.2c-3.8-1.1-11.2-3.5-4.6-8.9c1.6-1.3,8.1-1.9,9.8,0.8c-0.1,1.6,1,3,3.8,3.9
		c7.7,2.3,10.2-7,10.2-7s-2.3,5.8-9.1,3.8c-3.3-1-2-4.2-0.8-6.3c1.7-1.3,4.1-2.4,7.7-2.7c11.4-1,13.4,7.7,13.4,7.7l1.1,2.6
		c0,0,2.6-3.5,8.1-2.8c3.8,0.5,3.8,2.5,3.4,3.7C-287,243.6-282.7,244.6-284,247.3z M-276,227.7l-14.2,4.4l12-10.9L-276,227.7z
		 M-295.7,232l-1.9-11l5.9,0.1L-295.7,232z M-273.5,234.6l-0.7,5.1l-8-4.7L-273.5,234.6z"/>
	<path fill="#333333" d="M-348.7,306.1c0,1.1-0.9,1.9-1.9,1.9c-1.1,0-1.9-0.9-1.9-1.9c0-1.1,0.9-1.9,1.9-1.9
		C-349.5,304.2-348.7,305-348.7,306.1z M-313.8,310.1c0,0,2-3.3,4.4-1.9c2.4,1.4-1,3.1-1,3.1l2,1.2c0,0,5.1-3.8-0.4-6.6
		s-6.8,3.8-6.8,3.8L-313.8,310.1z M-351.7,310.7c-1.1,0-1.9,0.9-1.9,1.9c0,1.1,0.9,1.9,1.9,1.9s1.9-0.9,1.9-1.9
		C-349.8,311.6-350.6,310.7-351.7,310.7z M-278.5,308.5c-1.1,0-1.9,0.9-1.9,1.9c0,1.1,0.9,1.9,1.9,1.9c1.1,0,1.9-0.9,1.9-1.9
		C-276.6,309.4-277.5,308.5-278.5,308.5z M-272,303.1c-1.1,0-1.9,0.9-1.9,1.9c0,1.1,0.9,1.9,1.9,1.9c1.1,0,1.9-0.9,1.9-1.9
		C-270,303.9-270.9,303.1-272,303.1z M-272,309.6c-1.1,0-1.9,0.9-1.9,1.9c0,1.1,0.9,1.9,1.9,1.9c1.1,0,1.9-0.9,1.9-1.9
		C-270,310.5-270.9,309.6-272,309.6z M-344,309.6c-1.1,0-1.9,0.9-1.9,1.9c0,1.1,0.9,1.9,1.9,1.9c1.1,0,1.9-0.9,1.9-1.9
		C-342.1,310.5-343,309.6-344,309.6z M-324.6,313.5l-0.3,3.7c0,0,4.5,2.4,14.8,2.5c11.4,0.1,13.8-2.3,13.8-2.3l-0.1-3.7
		c0,0-6,2.2-14.2,2.1C-318,315.9-324.6,313.5-324.6,313.5z"/>
	<rect x="-344.7" y="297" fill="#333333" width="22.8" height="4.4"/>
	<rect x="-301.5" y="297" fill="#333333" width="22.8" height="4.4"/>
</g>
</svg>
