<?xml version="1.0" encoding="utf-8"?>
<!-- Generator: Adobe Illustrator 18.1.0, SVG Export Plug-In . SVG Version: 6.00 Build 0)  -->
<svg version="1.1" id="Layer_1" xmlns="http://www.w3.org/2000/svg" xmlns:xlink="http://www.w3.org/1999/xlink" x="0px" y="0px"
	 viewBox="-367 221 225 120" enable-background="new -367 221 225 120" xml:space="preserve">
<path fill="#333333" d="M-142.9,307.3c-2.1-4.4-6.3-6.7-11-8.6c6-3.9,11.5-8.8,9.9-17.3c-0.9-4.6-10.1-13.7-15.5-11.7
	c8.9-3.3,4.8-16.1-0.2-19.1c-7.3-4.4-12.7-4.4-20.9-5c-14.9-1.2-27.1-1-47.7,2c-9.4,1.4-17.2,2.3-26.7,2.8c-0.5,0-3.2-0.1-6.4-0.3
	c-5.3-0.3-13.1-1-14-1.5c0,0-0.1-0.1-0.1-0.1c-0.1,0.2-0.2,0.5-0.3,0.8c-0.7,1.1-2.4,3-4.9,4.3c-3.9,2.1-5.2,2.7-11.7,3.8
	c-13.9,2.2-32.2,3.4-45.6-1.4c-3-1.1-5.8-2.6-8.3-6.8c0.1,0.3-4.9,5.2-5.3,5.7c-2,2.4-3.8,4.9-5.4,7.5c-3.2,5.3-5.8,10.9-7.4,16.9
	c-4.6,16.9-4.3,37.4,10.8,49c14.9,11.4,37.8,12.6,55.7,12.2c4-0.1,7.6-0.3,10.9-0.6c27.9,0.7,55.9,1,83.8,0.5
	c13.1-0.2,26.8-0.1,39.8-2.1c12.2-1.8,16.6-7.6,9.1-16.5C-147.1,321.9-139.4,314.5-142.9,307.3z M-306.5,259.1c0,0,0,0.1,0,0.1
	c0,0,0,0,0,0C-306.5,259.1-306.5,259.1-306.5,259.1z M-318.8,332.7c-58.5-1.9-33.3-52.8-33.3-52.8c12.4,0.3,21.4-1.3,28-3.8l0.1-8.2
	l2.9,1.4l-0.1,6.9c1.9,3,6.2,5.6,15.6,5.5c3.1-0.1,5.5-0.4,7.5-1l1.7-13l-0.1,12.5c1.7-0.7,2.9-1.5,3.8-2.5l1.5-13.9l1.7,12.5
	c2,0.6,4,1,5.9,1.4l0.1-9.3l4.6-0.5l1.7,10.7c3.7,0.4,6.2,0.4,6.2,0.4C-263.7,302.2-257.2,334.7-318.8,332.7z"/>
<path fill="#FFFFFF" d="M-247.2,259.1c0.8,0,1.6,0.3,2.5,0.9c0.8,0.6,1.1,5.4,0.6,14.4c0,0.1,0.4,0.2,1.1,0.2
	c4.8-0.3,7.3-0.4,7.7-0.2c0.4,0.2,0.7,0.7,0.9,1.5c0.2,0.8,0.2,1.8,0.1,3.1c-0.2,1.3-0.5,2-1,2.3c-0.5,0.3-3,0.4-7.7,0.4
	c-4.7,0-7.2-0.1-7.4-0.3s-0.5-0.4-0.6-0.7c-0.1-0.3-0.1-1.7,0-4.2l0-7.5c0-4.1,0-6.4-0.1-6.9c-0.1-0.5,0-0.9,0.3-1.2
	c0.3-0.3,0.8-0.6,1.5-1C-248.8,259.3-248,259.1-247.2,259.1z M-219.9,259.6c0.4,0,0.9,3.3,1.4,9.8c0.5,6.6,0.5,10.2,0.1,10.9
	c-0.4,0.7-1.5,1.1-3.4,1.1c-1.8,0-3-0.3-3.4-0.9c-0.4-0.6-0.6-4.1-0.5-10.4c0.1-6.3,0.3-9.6,0.6-10
	C-224.6,259.9-223,259.7-219.9,259.6z M-200.8,260c1.3-0.1,2.7,0,4.2,0.4s2.6,0.8,3.5,1.3c0.9,0.4,1,1.2,0.6,2.2
	c-0.5,1-1.2,1.7-2.1,2.2s-2.2,0.4-3.8-0.1c-1.6-0.6-2.7-0.8-3.3-0.7s-1,0.3-1.1,0.6c-0.2,0.3,0.2,0.6,1,0.9c0.8,0.3,2,0.5,3.6,0.8
	c1.6,0.3,2.9,1.1,3.8,2.3c0.9,1.3,1.4,2.5,1.5,3.6c0.1,1.1-0.4,2.6-1.4,4.3c-1,1.8-3,2.9-6.1,3.5c-3.1,0.6-5.4,0.6-7.1-0.2
	c-1.6-0.7-2.8-1.8-3.6-3.3c-0.8-1.4-0.7-2.5,0.1-3.1c0.8-0.6,1.7-1,2.5-1.1s1.7,0,2.5,0.4c0.8,0.4,1.7,0.7,2.7,1
	c1,0.3,1.8-0.1,2.3-1c0.6-0.9-0.3-1.4-2.5-1.4c-2.3,0-3.9-0.4-4.9-1.1c-1-0.7-1.6-1.6-1.7-2.8s0-2.3,0.4-3.2c0.4-1,0.8-1.8,1.4-2.3
	c0.6-0.6,1.7-1.2,3.2-1.9S-202.1,260.1-200.8,260z M-177.7,259.1c0.7,0,1.9,0.3,3.6,0.8c1.7,0.5,3.2,3.9,4.6,10.1s1.6,9.6,0.6,10.1
	c-1,0.6-2.1,0.9-3.4,0.9c-1.3,0-2-0.2-2.3-0.5c-1.2-1.2-1.9-2.4-2.2-3.4c-0.3-1-0.4-1.6-0.5-1.6c-0.1,0-0.2,0-0.3,0h-0.5
	c0.1,0.7,0,1.7-0.1,3c-0.1,1.4-1,2.2-2.7,2.5s-2.8,0.3-3.4,0.1c-0.6-0.3-1.1-0.8-1.4-1.6c-0.3-0.8-0.5-1.5-0.5-2l0.2-3.7
	c0.9-6.5,1.5-10.2,1.8-10.9c0.3-0.7,0.5-1.2,0.7-1.5s0.5-0.7,1-1.1c0.5-0.4,1.2-0.7,2.2-0.9C-179.3,259.2-178.4,259.1-177.7,259.1z
	 M-179.4,267.4l-0.1,2l3.6,0l-0.3-2c0-0.6-0.2-1-0.6-1.1c-0.3-0.1-0.6-0.2-1.1-0.2c-0.6,0-1.1,0.3-1.4,0.8
	C-179.3,267.1-179.4,267.2-179.4,267.4z M-245.2,289.5c1.2,0,2.3,0.4,3.6,1.1c1.2,0.7,1.5,6.4,0.9,16.9c0,0.1,0.5,0.2,1.6,0.2
	c6.9-0.4,10.6-0.5,11.1-0.3c0.5,0.2,1,0.8,1.3,1.7c0.3,0.9,0.4,2.1,0.1,3.6c-0.3,1.5-0.8,2.4-1.4,2.6c-0.7,0.3-4.4,0.4-11.1,0.4
	c-6.8,0-10.4-0.1-10.7-0.4c-0.4-0.2-0.7-0.5-0.9-0.9c-0.2-0.4-0.2-2,0-5l0-8.8c0-4.8-0.1-7.5-0.2-8.1c-0.1-0.6,0-1.1,0.4-1.4
	c0.4-0.3,1.1-0.7,2.1-1.2C-247.4,289.7-246.3,289.5-245.2,289.5z M-207.9,290.1c0.6,0,1.3,3.9,2,11.6c0.7,7.7,0.8,12,0.2,12.8
	c-0.6,0.9-2.2,1.3-4.8,1.3c-2.7,0-4.3-0.4-4.8-1.1c-0.6-0.7-0.8-4.8-0.7-12.2c0.1-7.4,0.4-11.3,0.9-11.7
	C-214.7,290.4-212.2,290.2-207.9,290.1z M-174.5,290.3c2,0.2,3.3,0.7,3.9,1.2s1,1.2,1,2l0,11.2c-0.1,1.2,0,2.8,0.3,4.8
	c0.3,2,0.6,3.3,1,3.8c0.1,0.3,0.1,0.5,0.1,0.7c-0.1,0.6-0.4,1.1-1.1,1.3c-0.7,0.3-1.6,0.3-2.7,0.2c-1.1-0.2-2-0.4-2.6-0.9
	c-0.7-0.4-1.1-0.8-1.2-1.1c-0.1-0.2-0.2-0.3-0.2-0.3c-1.3,0.8-2.8,1.5-4.5,2.1c-1.9,0.4-4.1,0.4-6.7,0c-2.6-0.4-4.8-1.8-6.5-4.3
	c-1.7-2.5-2.2-8.1-1.4-16.9c0.2-2.3,0.6-3.5,1.2-3.7c0.6-0.2,1.3-0.4,2-0.5s1.7-0.1,2.9,0c1.3,0.1,2.2,0.3,2.7,0.6
	c0.6,0.3,0.8,2.9,0.6,7.6s0.6,7.1,2.3,7.2s2.6-0.7,2.8-2.4c0.2-1.7,0.5-3.2,0.8-4.4c0.3-1.3,0.6-3.5,0.9-6.7c0.1-0.5,0.4-1,0.8-1.3
	C-177.7,290.1-176.5,290.1-174.5,290.3z"/>
<path fill="#FFFFFF" d="M-178.9,330.8c-1.1,0-2.1-0.4-2.7-1.2c-0.6-0.8-1-1.8-1-3.1c0-1.3,0.3-2.3,1-3.1c0.7-0.8,1.6-1.1,2.7-1.1
	c1.1,0,2.1,0.4,2.7,1.1c0.6,0.8,1,1.8,1,3.1c0,1.3-0.3,2.3-1,3.1C-176.8,330.4-177.7,330.8-178.9,330.8z M-178.9,323.3
	c-0.9,0-1.5,0.3-2,0.8c-0.5,0.6-0.7,1.4-0.7,2.4c0,1.1,0.2,1.9,0.7,2.5c0.5,0.6,1.1,0.8,2,0.8c0.9,0,1.5-0.3,2-0.8
	c0.5-0.6,0.7-1.4,0.7-2.5c0-1.1-0.2-1.9-0.7-2.5C-177.3,323.6-178,323.3-178.9,323.3z M-221.6,330.8c-1,0-1.7-0.1-2.3-0.3l-0.1-0.1
	v-1l0.3,0.1c0.5,0.2,1.2,0.3,2.1,0.3c0.6,0,1.1-0.1,1.4-0.4c0.3-0.2,0.5-0.6,0.5-1c0-0.3-0.1-0.5-0.2-0.6c-0.1-0.2-0.3-0.3-0.5-0.5
	c-0.3-0.2-0.7-0.3-1.2-0.5c-0.8-0.3-1.4-0.6-1.7-0.9c-0.3-0.4-0.5-0.8-0.5-1.4c0-0.6,0.3-1.2,0.8-1.6c0.5-0.4,1.1-0.6,1.9-0.6
	c0.8,0,1.5,0.1,2.1,0.4l0.2,0.1l-0.4,0.8l-0.2-0.1c-0.6-0.3-1.2-0.4-1.8-0.4c-0.5,0-0.9,0.1-1.3,0.4c-0.3,0.2-0.4,0.5-0.4,0.9
	c0,0.3,0,0.5,0.1,0.6c0.1,0.1,0.2,0.3,0.4,0.4c0.2,0.2,0.7,0.3,1.2,0.5c0.6,0.2,1.1,0.4,1.4,0.6c0.3,0.2,0.6,0.5,0.7,0.7
	c0.1,0.2,0.3,0.5,0.3,1c0,0.7-0.3,1.3-0.8,1.7C-220.1,330.6-220.8,330.8-221.6,330.8z M-229.7,330.8c-1,0-1.7-0.3-2.3-0.8
	c-0.5-0.6-0.8-1.3-0.8-2.3v-5.2h1v5.3c0,0.7,0.2,1.2,0.6,1.6c0.4,0.4,0.9,0.6,1.6,0.6c0.7,0,1.2-0.2,1.6-0.6
	c0.4-0.4,0.6-0.9,0.6-1.6v-5.3h0.9v5.2c0,1-0.3,1.7-0.8,2.2C-228,330.5-228.7,330.8-229.7,330.8z M-172.4,330.7v-8.2h0.8l4.3,6.5
	c0-0.4,0-0.8,0-1.2v-5.3h0.9v8.2h-0.8l-4.3-6.5c0,0.5,0,0.9,0,1.2v5.3H-172.4z M-186.3,330.7v-8.2h0.9v8.2H-186.3z M-191.8,330.7
	v-7.3h-2.5v-0.9h6v0.9h-2.5v7.3H-191.8z M-196.3,330.7l-1.1-2.8h-2.9l-1.1,2.8h-1l3.3-8.2h0.6l3.2,8.2H-196.3z M-197.8,327.1
	c0,0-1-2.7-1.1-2.9c0,0.1-0.1,0.2-0.1,0.4l-1,2.5H-197.8z M-209.1,330.7v-8.2h2.1c1,0,1.8,0.2,2.3,0.6c0.5,0.4,0.8,1,0.8,1.8
	c0,0.6-0.2,1-0.5,1.4c-0.3,0.3-0.6,0.6-1.1,0.8l2.2,3.6h-1.1l-2-3.4h-1.6v3.4H-209.1z M-206.9,326.4c0.6,0,1.1-0.1,1.4-0.4
	c0.3-0.2,0.5-0.6,0.5-1.1c0-0.5-0.2-0.9-0.5-1.1c-0.3-0.2-0.9-0.4-1.6-0.4h-1.1v3.1H-206.9z M-214.7,330.7v-7.3h-2.5v-0.9h6v0.9
	h-2.5v7.3H-214.7z M-239.7,330.7v-8.2h0.9v7.3h3.7v0.9H-239.7z M-246.6,330.7v-8.2h0.9v7.3h3.7v0.9H-246.6z M-250.7,330.7v-8.2h0.9
	v8.2H-250.7z"/>
<path fill="#333333" d="M-285.6,241.9c-2.3-6.8-11.4-1.1-15.4-5.9c-3.2-3.9-7.4-5.1-12.3-5.1c-3.4,0-7,0.6-9.8,2.6
	c-1.8,1.3-3.5,3-4.1,5.2c0.3-1-6.8-2.3-11.5,1.6c-2.3,1.9-4.4,4.9-3.6,7.8c0.2,0.6,0.4,1.1,0.8,1.6c2.5,3.4,8.4,4.2,12.3,4.9
	c4.6,0.8,9.3,1.3,14,1.4c26,0.6,37.4-4.5,36-10.6C-279.9,241.9-285.3,242.8-285.6,241.9z M-284,247.7c-0.7,1.4-3.7,2.1-5,2.6
	c-8.1,2.7-16.8,3-25.3,2.7c-5.4-0.2-11.8-0.8-16.9-2.2c-3.8-1.1-11.2-3.6-4.6-8.9c1.6-1.3,8.1-1.9,9.8,0.8c-0.1,1.6,1,3,3.8,3.9
	c7.7,2.3,10.2-7,10.2-7s-2.3,5.8-9.1,3.8c-3.3-1-2-4.2-0.8-6.3c1.7-1.3,4.1-2.4,7.7-2.7c11.4-1.1,13.4,7.7,13.4,7.7l1.1,2.6
	c0,0,2.6-3.5,8.1-2.9c3.8,0.5,3.8,2.5,3.4,3.7C-287,244.1-282.6,245.1-284,247.7z M-276,228.2l-14.2,4.4l12-10.9L-276,228.2z
	 M-295.6,232.4l-1.9-11l5.9,0.1L-295.6,232.4z M-273.4,235.1l-0.7,5.1l-8-4.7L-273.4,235.1z"/>
<path fill="#333333" d="M-348.7,306.6c0,1.1-0.9,1.9-1.9,1.9c-1.1,0-1.9-0.9-1.9-1.9c0-1.1,0.9-1.9,1.9-1.9
	C-349.5,304.7-348.7,305.5-348.7,306.6z M-278.5,299.1c-0.8,6.4-6.6,10.9-13,10.1c-6.4-0.8-10.9-6.6-10.1-13
	c0.8-6.4,6.6-10.9,13-10.1C-282.2,286.9-277.7,292.7-278.5,299.1z M-282.4,298.6c0-0.1,0-0.2,0-0.3c-1.5,1.7-3.7,2.7-6.2,2.4
	c-3.8-0.5-6.5-3.9-6-7.7c0.1-0.7,0.3-1.3,0.5-1.9c-1.9,1.2-3.2,3.2-3.5,5.5c-0.5,4.2,2.4,8,6.6,8.5
	C-286.8,305.8-283,302.8-282.4,298.6z M-321.6,300.4c-0.8,6.4-6.6,10.9-13,10.1c-6.4-0.8-10.9-6.6-10.1-13c0.8-6.4,6.6-10.9,13-10.1
	C-325.3,288.1-320.8,294-321.6,300.4z M-325.6,300c0-0.1,0-0.2,0-0.3c-1.5,1.7-3.7,2.7-6.1,2.4c-3.8-0.5-6.5-3.9-6-7.7
	c0.1-0.6,0.2-1.2,0.5-1.7c-1.9,1.2-3.2,3.2-3.5,5.5c-0.5,4.2,2.4,8,6.6,8.5C-329.9,307.1-326.1,304.1-325.6,300z M-313.8,310.6
	c0,0,2-3.3,4.4-1.9c2.4,1.4-1,3.1-1,3.1l2,1.2c0,0,5.1-3.8-0.4-6.6c-5.5-2.8-6.8,3.8-6.8,3.8L-313.8,310.6z M-351.7,311.2
	c-1.1,0-1.9,0.9-1.9,1.9c0,1.1,0.9,1.9,1.9,1.9c1.1,0,1.9-0.9,1.9-1.9C-349.8,312.1-350.6,311.2-351.7,311.2z M-278.4,309
	c-1.1,0-1.9,0.9-1.9,1.9c0,1.1,0.9,1.9,1.9,1.9c1.1,0,1.9-0.9,1.9-1.9C-276.5,309.9-277.4,309-278.4,309z M-271.9,303.6
	c-1.1,0-1.9,0.9-1.9,1.9c0,1.1,0.9,1.9,1.9,1.9c1.1,0,1.9-0.9,1.9-1.9C-270,304.4-270.8,303.6-271.9,303.6z M-271.9,310.1
	c-1.1,0-1.9,0.9-1.9,1.9c0,1.1,0.9,1.9,1.9,1.9c1.1,0,1.9-0.9,1.9-1.9C-270,311-270.8,310.1-271.9,310.1z M-344,310.1
	c-1.1,0-1.9,0.9-1.9,1.9c0,1.1,0.9,1.9,1.9,1.9c1.1,0,1.9-0.9,1.9-1.9C-342.1,311-343,310.1-344,310.1z M-324.5,314.1l-0.3,3.7
	c0,0,4.5,2.4,14.8,2.5c11.4,0.1,13.8-2.3,13.8-2.3l-0.1-3.7c0,0-6,2.2-14.2,2.1C-317.9,316.4-324.5,314.1-324.5,314.1z"/>
</svg>
