<svg version="1.1" xmlns="http://www.w3.org/2000/svg" xmlns:xlink="http://www.w3.org/1999/xlink" xmlns:a="http://ns.adobe.com/AdobeSVGViewerExtensions/3.0/"
	 x="0px" y="0px" width="225px" height="120px" viewBox="0 0 224.85 119" style="enable-background:new 0 0 224.85 119;"
	 xml:space="preserve">

<path style="fill:#333333;" d="M223.99,85.75c-2.1-4.36-6.33-6.68-10.97-8.56c6.01-3.86,11.52-8.77,9.88-17.3
	c-0.9-4.63-10.14-13.65-15.45-11.69c8.85-3.27,4.75-16.11-0.17-19.11c-7.26-4.44-12.74-4.35-20.91-5.04
	c-14.86-1.24-27.11-0.99-47.63,2.03c-9.42,1.39-17.19,2.26-26.72,2.77c-0.54,0.03-3.21-0.09-6.4-0.29
	c-5.33-0.33-13.07-1.02-14.02-1.46c-0.04-0.03-0.07-0.07-0.11-0.1c-0.11,0.24-0.19,0.5-0.28,0.76c-0.66,1.06-2.39,2.98-4.9,4.32
	c-3.91,2.09-5.19,2.73-11.69,3.75c-13.92,2.19-32.19,3.36-45.61-1.35c-2.99-1.05-5.78-2.6-8.27-6.84c0.1,0.33-4.89,5.17-5.29,5.65
	c-1.98,2.38-3.8,4.9-5.43,7.54c-3.24,5.25-5.77,10.93-7.4,16.88c-4.64,16.92-4.32,37.41,10.83,48.96
	c14.9,11.35,37.77,12.57,55.65,12.16c3.98-0.09,7.6-0.29,10.91-0.58c27.91,0.67,55.82,1,83.74,0.51
	c13.13-0.23,26.77-0.12,39.78-2.07c12.22-1.84,16.58-7.59,9.09-16.45C219.73,100.33,227.47,92.95,223.99,85.75z M60.45,37.6
	c0,0.04,0,0.08,0,0.13c-0.01,0-0.01,0-0.02,0C60.44,37.65,60.45,37.6,60.45,37.6z M48.19,111.14
	c-58.51-1.94-33.31-52.72-33.31-52.72c12.39,0.29,21.41-1.33,28-3.79l0.07-8.24l2.86,1.38l-0.06,6.89
	c1.93,2.99,6.24,5.63,15.54,5.45c3.05-0.06,5.49-0.41,7.45-0.96l1.74-13.01l-0.11,12.47c1.7-0.67,2.93-1.53,3.8-2.48l1.5-13.94
	l1.67,12.48c2,0.57,4.01,1.02,5.94,1.37l0.08-9.29l4.63-0.48l1.74,10.66c3.7,0.36,6.23,0.36,6.23,0.36
	C103.25,80.64,109.72,113.18,48.19,111.14z"/>
<path style="fill:#FFFFFF;" d="M119.7,37.61c0.8,0,1.62,0.31,2.46,0.93c0.84,0.62,1.05,5.41,0.62,14.38c0,0.12,0.36,0.17,1.08,0.17
	c4.77-0.33,7.34-0.41,7.72-0.22c0.38,0.19,0.68,0.68,0.91,1.48c0.23,0.8,0.24,1.82,0.05,3.08c-0.2,1.25-0.52,2-0.97,2.25
	c-0.45,0.25-3.03,0.37-7.72,0.36c-4.7-0.01-7.17-0.11-7.43-0.3s-0.46-0.44-0.6-0.74s-0.13-1.71,0.02-4.22l-0.01-7.46
	c0-4.11-0.04-6.42-0.12-6.93c-0.08-0.51,0.01-0.9,0.27-1.18c0.26-0.28,0.75-0.62,1.46-1.01S118.9,37.61,119.7,37.61z M146.98,38.16
	c0.44,0,0.91,3.28,1.39,9.84c0.48,6.56,0.52,10.21,0.13,10.94c-0.39,0.73-1.51,1.09-3.35,1.09s-2.96-0.32-3.35-0.93
	c-0.39-0.62-0.55-4.08-0.47-10.4c0.08-6.32,0.28-9.64,0.61-9.97C142.27,38.4,143.95,38.21,146.98,38.16z M166.09,38.5
	c1.33-0.11,2.73,0.03,4.18,0.43s2.61,0.82,3.46,1.26s1.04,1.16,0.55,2.15s-1.19,1.72-2.11,2.18s-2.18,0.42-3.8-0.14
	c-1.62-0.55-2.71-0.79-3.29-0.69s-0.95,0.3-1.12,0.62c-0.17,0.33,0.15,0.61,0.96,0.86c0.81,0.25,2.01,0.52,3.6,0.81
	s2.85,1.07,3.76,2.34c0.92,1.27,1.41,2.47,1.48,3.6c0.07,1.13-0.39,2.57-1.38,4.32c-0.99,1.75-3.02,2.93-6.1,3.54
	c-3.08,0.61-5.43,0.56-7.07-0.16c-1.63-0.72-2.84-1.81-3.6-3.25s-0.74-2.49,0.09-3.12s1.67-1.01,2.54-1.13
	c0.87-0.12,1.71,0.02,2.52,0.42s1.7,0.72,2.68,0.96c0.98,0.25,1.76-0.08,2.33-0.99c0.58-0.9-0.26-1.38-2.52-1.42
	c-2.25-0.04-3.88-0.41-4.89-1.11s-1.56-1.64-1.68-2.82c-0.12-1.18,0-2.26,0.36-3.24c0.36-0.97,0.84-1.75,1.43-2.33
	c0.6-0.58,1.68-1.22,3.24-1.9S164.75,38.61,166.09,38.5z M189.13,37.66c0.71,0,1.9,0.27,3.59,0.8s3.21,3.89,4.59,10.09
	s1.56,9.57,0.57,10.14c-1,0.57-2.12,0.85-3.39,0.85c-1.26,0-2.04-0.15-2.33-0.46c-1.19-1.24-1.93-2.38-2.19-3.41
	c-0.27-1.04-0.44-1.55-0.52-1.55c-0.06-0.03-0.15-0.04-0.26-0.04h-0.45c0.06,0.65,0.02,1.65-0.12,3c-0.14,1.35-1.04,2.19-2.69,2.5
	c-1.65,0.31-2.78,0.33-3.38,0.05c-0.6-0.28-1.07-0.83-1.4-1.63c-0.33-0.81-0.49-1.46-0.49-1.95l0.23-3.7
	c0.92-6.52,1.51-10.15,1.76-10.87c0.25-0.72,0.47-1.23,0.66-1.52c0.19-0.29,0.51-0.65,0.98-1.06c0.46-0.42,1.21-0.72,2.24-0.92
	C187.56,37.76,188.43,37.66,189.13,37.66z M187.5,45.91l-0.09,2.01l3.58,0.03l-0.33-2c0-0.58-0.2-0.95-0.61-1.12
	c-0.26-0.13-0.63-0.2-1.1-0.2c-0.61,0-1.06,0.28-1.36,0.83C187.53,45.6,187.5,45.74,187.5,45.91z M121.75,67.96
	c1.15,0,2.34,0.36,3.55,1.09c1.22,0.73,1.51,6.35,0.89,16.87c0,0.14,0.52,0.21,1.55,0.21c6.88-0.39,10.59-0.48,11.13-0.26
	s0.98,0.79,1.31,1.73c0.33,0.94,0.35,2.14,0.07,3.61c-0.28,1.47-0.75,2.35-1.4,2.64c-0.65,0.29-4.37,0.43-11.14,0.42
	c-6.78-0.01-10.35-0.13-10.72-0.35c-0.37-0.23-0.66-0.52-0.86-0.87c-0.2-0.35-0.19-2,0.03-4.95l-0.02-8.75
	c0-4.82-0.06-7.53-0.18-8.13s0.01-1.06,0.39-1.39s1.08-0.72,2.11-1.19S120.6,67.96,121.75,67.96z M159.03,68.62
	c0.64,0,1.31,3.85,2,11.55c0.69,7.7,0.76,11.98,0.19,12.83c-0.56,0.86-2.17,1.29-4.83,1.28s-4.27-0.37-4.84-1.1s-0.8-4.79-0.68-12.2
	c0.11-7.41,0.41-11.31,0.89-11.69C152.24,68.9,154.67,68.68,159.03,68.62z M192.34,68.83c1.99,0.24,3.3,0.65,3.93,1.23
	c0.63,0.58,0.97,1.24,1.03,1.98l0.02,11.16c-0.12,1.23-0.03,2.83,0.27,4.81s0.63,3.25,0.98,3.82c0.07,0.27,0.09,0.52,0.07,0.73
	c-0.06,0.62-0.43,1.07-1.11,1.33c-0.69,0.27-1.57,0.33-2.65,0.18c-1.08-0.15-1.96-0.43-2.63-0.86c-0.67-0.43-1.09-0.81-1.23-1.14
	c-0.1-0.2-0.17-0.3-0.2-0.3c-1.25,0.79-2.75,1.49-4.51,2.1c-1.89,0.36-4.14,0.36-6.74,0c-2.6-0.36-4.76-1.8-6.47-4.32
	c-1.71-2.52-2.16-8.13-1.35-16.85c0.21-2.26,0.63-3.5,1.23-3.73s1.26-0.38,1.96-0.47c0.7-0.09,1.68-0.1,2.94-0.03
	c1.26,0.06,2.17,0.26,2.73,0.6c0.56,0.34,0.77,2.87,0.61,7.6c-0.16,4.73,0.6,7.14,2.29,7.23s2.63-0.72,2.84-2.42
	c0.21-1.7,0.46-3.18,0.75-4.43s0.6-3.49,0.93-6.72c0.12-0.51,0.38-0.96,0.76-1.33S190.34,68.59,192.34,68.83z"/>
<path style="fill:#FFFFFF;" d="M116.38,108.98v-7.8h0.54v7.8H116.38z M120.48,108.98v-7.8h0.54v7.29h3.72v0.51H120.48z
	 M127.44,108.98v-7.8h0.54v7.29h3.72v0.51H127.44z M140.14,101.18v5.05c0,0.9-0.26,1.6-0.78,2.1c-0.52,0.5-1.24,0.76-2.17,0.76
	c-0.9,0-1.61-0.25-2.11-0.76s-0.76-1.21-0.76-2.12v-5.02h0.55v5.05c0,0.75,0.21,1.33,0.62,1.75s1,0.63,1.77,0.63
	c0.74,0,1.32-0.21,1.73-0.62c0.41-0.41,0.61-0.98,0.61-1.71v-5.1H140.14z M147.92,106.97c0,0.65-0.24,1.17-0.72,1.55
	c-0.48,0.38-1.11,0.57-1.91,0.57c-0.95,0-1.68-0.1-2.19-0.31v-0.54c0.56,0.24,1.28,0.36,2.15,0.36c0.64,0,1.15-0.15,1.52-0.44
	c0.38-0.29,0.56-0.68,0.56-1.15c0-0.29-0.06-0.54-0.19-0.73c-0.13-0.19-0.33-0.37-0.61-0.53c-0.28-0.16-0.69-0.33-1.24-0.52
	c-0.8-0.27-1.35-0.57-1.65-0.89c-0.3-0.32-0.46-0.74-0.46-1.27c0-0.58,0.23-1.06,0.68-1.43s1.04-0.55,1.76-0.55
	c0.73,0,1.42,0.14,2.06,0.42l-0.2,0.47c-0.65-0.27-1.27-0.41-1.86-0.41c-0.58,0-1.03,0.13-1.38,0.4c-0.34,0.27-0.51,0.63-0.51,1.09
	c0,0.29,0.05,0.52,0.16,0.71c0.1,0.19,0.28,0.35,0.51,0.5s0.65,0.32,1.23,0.53c0.61,0.21,1.07,0.41,1.37,0.61s0.53,0.42,0.67,0.67
	S147.92,106.61,147.92,106.97z M152.95,108.98h-0.55v-7.29h-2.53v-0.51h5.62v0.51h-2.53V108.98z M158.54,105.58v3.4H158v-7.8h1.86
	c0.97,0,1.68,0.18,2.14,0.54c0.46,0.36,0.69,0.9,0.69,1.61c0,0.52-0.14,0.96-0.41,1.32s-0.69,0.62-1.26,0.77l2.12,3.55h-0.65
	l-2.01-3.4H158.54z M158.54,105.11h1.49c0.66,0,1.17-0.15,1.53-0.44c0.36-0.29,0.54-0.73,0.54-1.3c0-0.59-0.18-1.03-0.53-1.3
	s-0.94-0.41-1.74-0.41h-1.29V105.11z M169.6,106.23h-3.17l-1.09,2.75h-0.6l3.14-7.83h0.35l3.07,7.83h-0.61L169.6,106.23z
	 M166.63,105.74h2.79l-1.06-2.81c-0.09-0.22-0.2-0.53-0.32-0.92c-0.1,0.34-0.2,0.65-0.31,0.93L166.63,105.74z M175.79,108.98h-0.55
	v-7.29h-2.53v-0.51h5.62v0.51h-2.53V108.98z M180.83,108.98v-7.8h0.54v7.8H180.83z M191.49,105.07c0,1.24-0.31,2.22-0.93,2.94
	c-0.62,0.72-1.47,1.08-2.56,1.08c-1.08,0-1.94-0.36-2.55-1.08c-0.62-0.72-0.93-1.7-0.93-2.95c0-1.24,0.31-2.22,0.94-2.93
	s1.48-1.07,2.56-1.07c1.09,0,1.94,0.36,2.55,1.07C191.18,102.85,191.49,103.83,191.49,105.07z M185.11,105.07
	c0,1.12,0.25,1.98,0.75,2.59c0.5,0.61,1.21,0.92,2.14,0.92c0.94,0,1.66-0.3,2.15-0.91c0.5-0.6,0.74-1.47,0.74-2.6
	c0-1.12-0.25-1.99-0.74-2.58c-0.5-0.6-1.21-0.9-2.14-0.9c-0.93,0-1.64,0.3-2.15,0.91C185.36,103.1,185.11,103.96,185.11,105.07z
	 M200.31,108.98h-0.55l-4.62-6.92h-0.04c0.04,0.83,0.06,1.45,0.06,1.87v5.06h-0.52v-7.8h0.54l4.61,6.91h0.03
	c-0.03-0.64-0.05-1.25-0.05-1.82v-5.09h0.53V108.98z"/>
<path style="fill:#333333;" d="M81.31,20.45c-2.3-6.8-11.36-1.05-15.34-5.94c-3.17-3.89-7.38-5.05-12.28-5.08
	c-3.37-0.02-6.98,0.59-9.75,2.63c-1.75,1.29-3.48,3.02-4.06,5.17c0.27-0.99-6.82-2.33-11.52,1.6c-2.3,1.93-4.43,4.88-3.55,7.79
	c0.17,0.55,0.43,1.09,0.82,1.61c2.54,3.44,8.37,4.19,12.25,4.89c4.6,0.83,9.34,1.33,14.02,1.43c25.94,0.55,37.38-4.54,35.93-10.59
	C87,20.43,81.61,21.33,81.31,20.45z M82.95,26.27c-0.71,1.39-3.65,2.12-4.98,2.56c-8.05,2.67-16.83,2.97-25.25,2.72
	c-5.36-0.16-11.78-0.75-16.93-2.18c-3.83-1.07-11.2-3.55-4.6-8.86c1.6-1.29,8.07-1.92,9.77,0.82c-0.08,1.63,0.97,3.03,3.84,3.9
	c7.69,2.34,10.23-6.98,10.23-6.98s-2.3,5.75-9.13,3.75c-3.29-0.97-2.04-4.17-0.79-6.28c1.69-1.33,4.13-2.41,7.68-2.73
	c11.41-1.05,13.35,7.72,13.35,7.72l1.05,2.61c0,0,2.64-3.52,8.06-2.85c3.82,0.48,3.75,2.52,3.38,3.68
	C79.96,22.61,84.3,23.64,82.95,26.27z M90.95,6.7l-14.2,4.37L88.77,0.14L90.95,6.7z M71.31,10.98L69.45,0l5.88,0.09L71.31,10.98z
	 M93.5,13.62l-0.73,5.1l-8.01-4.73L93.5,13.62z"/>
<path style="fill:#333333;" d="M18.32,85.07c0,1.06-0.86,1.91-1.91,1.91s-1.91-0.86-1.91-1.91c0-1.06,0.86-1.91,1.91-1.91
	S18.32,84.02,18.32,85.07z M88.47,77.62c-0.8,6.39-6.62,10.91-13.01,10.12c-6.39-0.8-10.91-6.62-10.12-13.01s6.62-10.91,13.01-10.12
	C84.74,65.41,89.27,71.23,88.47,77.62z M84.5,77.1c0.01-0.08,0.01-0.16,0.02-0.25c-1.46,1.74-3.74,2.73-6.16,2.43
	c-3.79-0.47-6.48-3.93-6.01-7.72c0.08-0.66,0.26-1.28,0.51-1.86c-1.86,1.18-3.2,3.15-3.49,5.5c-0.52,4.18,2.44,7.99,6.62,8.51
	C80.17,84.25,83.98,81.28,84.5,77.1z M45.39,78.84c-0.8,6.39-6.62,10.91-13.01,10.12s-10.91-6.62-10.12-13.01
	c0.8-6.39,6.62-10.91,13.01-10.12C41.66,66.63,46.19,72.45,45.39,78.84z M41.37,78.45c0.01-0.1,0.01-0.21,0.02-0.31
	c-1.46,1.71-3.72,2.67-6.11,2.37c-3.79-0.47-6.48-3.93-6.01-7.72c0.08-0.61,0.24-1.19,0.46-1.73c-1.86,1.18-3.2,3.15-3.5,5.5
	c-0.52,4.18,2.44,7.99,6.62,8.51C37.03,85.59,40.84,82.63,41.37,78.45z M53.18,89.08c0,0,2-3.28,4.37-1.91c2.37,1.37-1,3.09-1,3.09
	l2,1.18c0,0,5.1-3.82-0.36-6.64s-6.83,3.82-6.83,3.82L53.18,89.08z M15.31,89.71c-1.06,0-1.91,0.86-1.91,1.91
	c0,1.06,0.86,1.91,1.91,1.91s1.91-0.86,1.91-1.91C17.22,90.57,16.37,89.71,15.31,89.71z M88.5,87.53c-1.06,0-1.91,0.86-1.91,1.91
	c0,1.06,0.86,1.91,1.91,1.91c1.06,0,1.91-0.86,1.91-1.91C90.41,88.38,89.55,87.53,88.5,87.53z M95.05,82.07
	c-1.06,0-1.91,0.86-1.91,1.91c0,1.06,0.86,1.91,1.91,1.91s1.91-0.86,1.91-1.91C96.96,82.92,96.11,82.07,95.05,82.07z M95.05,88.62
	c-1.06,0-1.91,0.86-1.91,1.91c0,1.06,0.86,1.91,1.91,1.91s1.91-0.86,1.91-1.91C96.96,89.48,96.11,88.62,95.05,88.62z M22.96,88.62
	c-1.06,0-1.91,0.86-1.91,1.91c0,1.06,0.86,1.91,1.91,1.91c1.06,0,1.91-0.86,1.91-1.91C24.87,89.48,24.01,88.62,22.96,88.62z
	 M42.43,92.55l-0.28,3.74c0,0,4.47,2.41,14.83,2.5c11.35,0.1,13.75-2.25,13.75-2.25l-0.09-3.74c0,0-6.01,2.19-14.24,2.12
	C49.02,94.86,42.43,92.55,42.43,92.55z"/>

</svg>
