<svg version="1.1" xmlns="http://www.w3.org/2000/svg" xmlns:xlink="http://www.w3.org/1999/xlink" xmlns:a="http://ns.adobe.com/AdobeSVGViewerExtensions/3.0/"
	 x="0px" y="0px" width="18px" height="18.25px" viewBox="0 0 18 18.25" style="enable-background:new 0 0 18 18.25;"
	 xml:space="preserve">

	<path style="fill:#000000;" d="M18,16.56l-4.08-4.08c1-1.31,1.6-2.94,1.6-4.71C15.52,3.47,12.05,0,7.76,0S0,3.47,0,7.76
		s3.47,7.76,7.76,7.76c1.65,0,3.17-0.52,4.42-1.39l4.12,4.12L18,16.56z M2.4,7.76C2.4,4.8,4.8,2.4,7.76,2.4
		c2.96,0,5.36,2.4,5.36,5.36c0,2.96-2.4,5.36-5.36,5.36C4.8,13.12,2.4,10.72,2.4,7.76z M11,8.87H5v-2h6V8.87z M9,4.87v6H7v-6H9z"/>
</svg>
